#!OML:ASF E:/inclinewalkrobotboard/Project1/Captureday1/Session1/subject1.ASF
:FULLY-SPECIFIED
:DEGREES
288
root 0 0 0 -1.109264597189445 -5.571488896965727 -8.350574276314797
lowerback 9.444623991273914 2.676167740185694 6.710583330765149
upperback -0.49958790599904324 4.346771416071033 1.1867700064584321
thorax -5.728197704991158 1.9835080135507697 -3.1396025912403824
lowerneck -15.574935354735054 -3.1232306599034425 -0.984754819923086
upperneck 13.648562076317026 -4.335238489439842 1.3270821714927625
head 6.807687667260305 -2.029964424223853 0.1319177462024721
rclavicle -5.542314094781289E-15 9.300662869346737E-16
rhumerus -27.33754880702096 -19.636116168144838 -81.25026870423926
rradius 27.96694419030459
rwrist 16.758152744637872
rhand -20.735109803486097 29.576078918391197
rfingers 7.125019999999994
rthumb 5.654077549318602 -0.57549201100516
lclavicle -5.5044735628002616E-15 4.581478434019205E-16
lhumerus -35.41002605272237 8.327966018956323 80.19195652698268
lradius 16.271187659843207
lwrist -1.9755663927600504
lhand -26.752900204278834 26.72901974874347
lfingers 7.125019999999983
lthumb -0.225978784248686 56.73938792741847
rfemur -5.261278584516077 6.384946211815335 29.40268154540074
rtibia 32.57354471031145
rfoot -12.300242257210764 -5.658807990660083
rtoes 3.793860135247417
lfemur -22.012176657964137 0.8836176013800512 -13.863604514587587
ltibia 38.888712690814316
lfoot -2.882427147216278 -2.73644208202739
ltoes -13.57415573367069
289
root 0 0 0 -1.1438655751206122 -5.616438813353542 -8.321584426136024
lowerback 9.359539548162887 2.70621678275176 6.680543986682487
upperback -0.3806801474855613 4.378485548393995 1.1671148773867184
thorax -5.545992839607591 2.0005610817614765 -3.1405667332059664
lowerneck -15.24875963056447 -3.137145308534774 -1.0257290178886527
upperneck 13.708299061178995 -4.376472674196668 1.5330116535372464
head 6.76378683748169 -2.0386517015129395 0.20744370068402057
rclavicle -5.214519270081193E-15 5.756883383057747E-16
rhumerus -28.108051901975582 -19.369924345851743 -82.0534691154516
rradius 26.512338014952718
rwrist 17.19732198056096
rhand -20.54759088071995 29.900274627314978
rfingers 7.125019999999993
rthumb 5.83624365103607 -0.25773190511513633
lclavicle -5.4735058105831986E-15 1.9070562525158544E-16
lhumerus -35.43680418947006 8.700259340360976 80.08361739191159
lradius 15.735441257542885
lwrist -2.332430193468706
lhand -26.76332534769938 26.744248924258933
lfingers 7.12501999999998
lthumb -0.24206665943593375 56.758040379112046
rfemur -5.653847870294572 5.936988946862723 28.679296097850948
rtibia 34.47594009349735
rfoot -10.844447070833496 -5.301527075082424
rtoes 4.538878359009391
lfemur -21.659387680314104 1.1531050543895018 -15.343681543989465
ltibia 40.1228223240051
lfoot -0.9283906078846371 -4.75707881473247
ltoes -7.064122918596954
290
root 0 0 0 -1.2503594753601064 -5.677990982088745 -8.255680275979183
lowerback 9.241946345431286 2.7173071235156554 6.639508841782019
upperback -0.2885532974777898 4.383392754919305 1.1528399017549327
thorax -5.376387606771173 2.0051840400244143 -3.1255250598026403
lowerneck -15.044338979465955 -3.1485930814867324 -1.0862549475490146
upperneck 13.520965905309389 -4.396777204706825 1.7074459901232784
head 6.648471831152737 -2.0443313910025136 0.2774684116948069
rclavicle -4.9660977811303284E-15 2.9847527970910146E-16
rhumerus -28.668522636812952 -19.240349835499988 -82.57741779924787
rradius 25.37594393392473
rwrist 17.38948684844166
rhand -20.377594762230235 30.108110966884105
rfingers 7.125019999999993
rthumb 6.000835133189585 -0.05059777921303521
lclavicle -5.438502722428145E-15 -8.381707660642144E-17
lhumerus -35.401548265267266 8.772315794524172 80.07826938838828
lradius 15.604138736923293
lwrist -2.3915846159328606
lhand -26.785764754170938 26.790778665623282
lfingers 7.12501999999998
lthumb -0.26450928700032783 56.80917377755894
rfemur -6.605936607151378 5.575752179265593 28.51696316640701
rtibia 37.52022685923927
rfoot -9.4948927662329 -5.142642262087352
rtoes 5.5411558390404005
lfemur -21.425561767049647 1.344352077844535 -15.90518133203326
ltibia 40.810020190354265
lfoot -0.07068045140783141 -5.669618546916189
ltoes -4.675503156862291
291
root 0 0 0 -1.3691624084785132 -5.762195024867065 -8.179920033160279
lowerback 9.090984624319479 2.7256780072282636 6.595601770468854
upperback -0.2065760794116981 4.383135665051458 1.1443795774835508
thorax -5.199081280137134 2.008329002640303 -3.101046618709627
lowerneck -14.821000324238709 -3.1554352414565248 -1.159496593607493
upperneck 13.216643840070848 -4.404109239946815 1.8955742652881122
head 6.48864797112871 -2.0465158078713066 0.3560642362451705
rclavicle -4.86156483350863E-15 1.3614190014785194E-16
rhumerus -29.06334633760347 -18.98810857124935 -82.95147623493449
rradius 24.605725117659844
rwrist 17.32744353396406
rhand -20.217866351589155 30.273096503435895
rfingers 7.125019999999993
rthumb 6.154491658504078 0.11804647361110199
lclavicle -5.493503903606831E-15 -2.873514740317695E-16
lhumerus -35.32654420983274 8.737531900872371 80.14502584607665
lradius 15.582552717997157
lwrist -2.3802862221729604
lhand -26.79861512849387 26.824804053380685
lfingers 7.125019999999981
lthumb -0.2761276144238147 56.845869642742045
rfemur -7.67998905197695 5.43204901423494 28.846681793701023
rtibia 40.15865132665585
rfoot -8.824347199001284 -5.2339287415828215
rtoes 6.2617451077218345
lfemur -21.365740364657263 1.3944493242127125 -16.055357242177337
ltibia 41.056569256209045
lfoot 0.20779880117078875 -5.949388167688777
ltoes -3.9757569377630766
292
root 0 0 0 -1.4720472073493847 -5.863867020715427 -8.097239451019322
lowerback 8.913045199397137 2.7463492666041778 6.5399786448533614
upperback -0.1330711310657939 4.39654293549938 1.1358450817827919
thorax -5.0145922987717375 2.0196714646703233 -3.07053690769904
lowerneck -14.519644198401483 -3.163734373361553 -1.2427093079726104
upperneck 12.949204748194523 -4.417933031810209 2.1292643507346165
head 6.332418100070036 -2.0498665619566085 0.45138867017849343
rclavicle -4.836817144117605E-15 -1.7934324608029573E-17
rhumerus -29.40641201572221 -18.557755199971723 -83.29812589043452
rradius 24.017191987307243
rwrist 17.058590816012792
rhand -20.054519454664856 30.447167489521526
rfingers 7.125019999999994
rthumb 6.31092043780478 0.29807230182733235
lclavicle -5.611001250992853E-15 -4.566800665035854E-16
lhumerus -35.23619442180676 8.668436607124194 80.21172266484396
lradius 15.604872294857895
lwrist -2.341684636271388
lhand -26.815853503683257 26.85286177307554
lfingers 7.1250199999999815
lthumb -0.29193275901838245 56.875831499742354
rfemur -8.427986733586632 5.467631031361567 29.248523751010183
rtibia 41.309487283541294
rfoot -8.833904808586611 -5.447050332531056
rtoes 6.451143080423049
lfemur -21.387892794391533 1.32265324445504 -16.05136753208421
ltibia 40.95481466964117
lfoot 0.14951107691674537 -5.868000740554187
ltoes -3.935023569839988
293
root 0 0 0 -1.5631659242611835 -5.973067724955444 -7.987893542324617
lowerback 8.736287687867847 2.785217825180443 6.455878333235093
upperback -0.07855689498888489 4.4298739639678875 1.1188694724598967
thorax -4.850434017877296 2.042613231362286 -3.0345419538496694
lowerneck -14.183816218372634 -3.180923163821528 -1.3363732098731496
upperneck 12.797882303902735 -4.452028092621405 2.4018351226530705
head 6.217185240173503 -2.0594239283462907 0.5588974838055432
rclavicle -4.794513410590537E-15 -2.570383381458599E-16
rhumerus -29.741873395607797 -18.050425458785952 -83.63295573370722
rradius 23.454813898589236
rwrist 16.6668544642204
rhand -19.874246647498694 30.613914575593967
rfingers 7.125019999999996
rthumb 6.483367224636233 0.4748573045100315
lclavicle -5.680401000905121E-15 -6.354798014830076E-16
lhumerus -35.159968848657954 8.607009867142573 80.21499235504214
lradius 15.655473206185114
lwrist -2.27872306733005
lhand -26.852858247473982 26.89265929263779
lfingers 7.125019999999982
lthumb -0.32731708980836416 56.91963289225099
rfemur -8.776424276936108 5.582628125024955 29.49399324360347
rtibia 41.14857105202526
rfoot -9.210251542029464 -5.662317077431632
rtoes 6.238922084350914
lfemur -21.373704320978263 1.1782581419150642 -16.018623741547735
ltibia 40.61922156823757
lfoot -0.10969348176718263 -5.604861848043157
ltoes -4.151821299802304
